<?xml version="1.0" encoding="UTF-8" standalone="no"?>
<svg
   inkscape:export-ydpi="29.629999"
   inkscape:export-xdpi="29.629999"
   inkscape:export-filename="/home/noumir/kreako/kreako.fr/astro/public/assets/favicon.png"
   width="210mm"
   height="210mm"
   viewBox="0 0 210 210"
   version="1.1"
   id="svg8"
   inkscape:version="1.1.2 (0a00cf5339, 2022-02-04)"
   sodipodi:docname="favicon.svg"
   xmlns:inkscape="http://www.inkscape.org/namespaces/inkscape"
   xmlns:sodipodi="http://sodipodi.sourceforge.net/DTD/sodipodi-0.dtd"
   xmlns="http://www.w3.org/2000/svg"
   xmlns:svg="http://www.w3.org/2000/svg"
   xmlns:rdf="http://www.w3.org/1999/02/22-rdf-syntax-ns#"
   xmlns:cc="http://creativecommons.org/ns#"
   xmlns:dc="http://purl.org/dc/elements/1.1/">
  <defs
     id="defs2" />
  <sodipodi:namedview
     inkscape:window-maximized="1"
     inkscape:window-y="0"
     inkscape:window-x="0"
     inkscape:window-height="704"
     inkscape:window-width="1366"
     id="base"
     pagecolor="#ffffff"
     bordercolor="#666666"
     borderopacity="1.0"
     inkscape:pageopacity="0.0"
     inkscape:pageshadow="2"
     inkscape:zoom="1.1505167"
     inkscape:cx="386.34816"
     inkscape:cy="372.00678"
     inkscape:document-units="mm"
     inkscape:current-layer="layer2"
     inkscape:document-rotation="0"
     showgrid="false"
     inkscape:snap-global="false"
     inkscape:pagecheckerboard="0" />
  <metadata
     id="metadata5">
    <rdf:RDF>
      <cc:Work
         rdf:about="">
        <dc:format>image/svg+xml</dc:format>
        <dc:type
           rdf:resource="http://purl.org/dc/dcmitype/StillImage" />
      </cc:Work>
    </rdf:RDF>
  </metadata>
  <g
     inkscape:groupmode="layer"
     id="layer2"
     inkscape:label="Lezard"
     style="display:inline">
    <path
       inkscape:export-ydpi="96"
       inkscape:export-xdpi="96"
       inkscape:export-filename="/home/noumir/kreako/kreako.fr/src/favicon.png"
       style="fill:#7dd3fc;stroke:none;stroke-width:1.49262px;stroke-linecap:butt;stroke-linejoin:miter;stroke-opacity:1"
       d="m 101.12559,266.48339 c -5.844673,-6.08501 -11.417773,-12.58234 -20.671383,-13.49144 -8.0529,-0.79107 -25.163418,25.05961 -39.894398,39.23541 7.17895,-17.65371 -17.734915,-26.57216 -23.499091,-11.41536 -6.716738,17.66158 5.253636,10.17883 6.581516,20.06805 -13.192866,-3.85614 -18.661765,-3.48539 -24.583561,5.48324 -4.069679,10.85347 2.84989,20.55968 13.345697,20.37673 -3.150956,7.45292 -5.626136,17.78275 2.75805,21.94787 5.543966,2.37445 16.87899,-3.94877 16.87899,-3.94877 0,0 4.058928,7.7277 7.157409,9.1254 9.76402,2.96309 16.08086,0.44513 19.505748,-8.76265 10.13466,1.78642 17.62137,1.81549 19.50891,-10.20873 0.39995,-9.72402 -3.86426,-14.55063 -13.253,-15.52075 -2.77635,-0.65742 -3.51092,-2.41377 -4.15116,-4.22088 6.81898,-12.43193 9.31818,-13.39574 12.71793,-16.75033 4.90492,13.23992 11.12902,19.70502 17.9913,22.89217 -11.26378,43.10921 -37.679278,89.20368 -39.831008,112.65622 -2.13047,23.22092 4.20972,53.54481 22.162538,72.61443 23.60377,25.07214 54.158683,41.48507 79.839963,41.79866 12.70652,0.15505 -37.79459,-35.66097 -57.665843,-72.80466 -15.62469,-29.20596 -5.4427,-51.68258 -2.40853,-60.9188 1.70324,-5.18472 2.0133,-9.44517 20.235613,-34.8474 18.20594,-25.37946 19.71045,-9.66278 31.26662,-39.166 5.94125,7.26714 12.6897,10.92615 26.9762,5.10337 l -9.22257,23.85125 c -1.73488,0.88917 -2.3544,-0.2061 -3.05603,-1.1551 -0.55682,-14.20446 -15.89079,-17.73768 -19.67098,-0.47107 0.0941,18.4219 10.86736,10.36624 12.70411,17.28932 -11.89163,1.51266 -25.42129,4.7431 -25.55405,12.28522 -0.15757,8.94199 6.08334,15.97793 18.0498,14.98944 -1.56753,10.99495 5.66134,22.50164 16.04054,21.76953 7.70518,-0.54327 16.38525,-3.00396 12.44988,-13.35982 4.61912,7.01941 14.78627,5.87183 20.4902,1.69563 8.22464,-6.02192 3.03431,-19.92718 0.91908,-21.74528 3.13942,-2.08656 10.83164,-4.63017 8.48154,-17.12919 -5.2727,-7.90126 -16.0789,-5.65089 -22.8346,-5.88324 l 4.10588,-15.72344 c 8.89726,-13.71633 18.24199,-45.42934 9.56712,-55.39184 -4.26219,-4.36884 -23.00404,-1.65101 -29.84031,-1.96615 7.22698,-38.03374 23.56214,-58.89725 16.59947,-91.94842 -7.8617,-23.09707 -21.70244,-40.52985 -35.52909,-61.02434 0,0 9.30594,5.18314 14.02561,4.01238 6.17105,-1.53075 10.14274,-7.98022 13.76069,-13.20848 3.14226,-4.54083 6.52431,-15.22721 6.52431,-15.22721 6.11184,7.42364 8.14871,8.43119 15.04677,5.03242 8.13957,-4.0104 4.46573,-12.8308 0.74129,-17.23801 3.64868,-3.74973 6.34747,-10.19487 5.89427,-13.50399 -1.3713,-10.012136 -2.39159,-8.225663 -10.82752,-9.685941 -0.034,-4.693414 -2.93004,-8.548414 -6.08041,-10.91927 -6.67139,-3.392451 -10.2583,2.329454 -14.92252,7.437566 -2.97889,-3.259881 -11.69952,-9.524377 -15.57424,-3.738841 -2.99254,5.769289 -3.81046,6.37854 -2.68461,12.766858 0,0 -4.20273,-2.424993 -8.26,2.337526 -8.05322,12.595322 4.30301,20.282582 16.27639,20.272132 -4.01299,3.72501 -8.13343,6.98614 -12.62206,8.6573 -9.81628,-8.77176 -18.93743,-20.47072 -29.61707,-25.60647 0,0 1.32172,-20.805928 -2.17085,-30.923157 C 110.3886,58.037433 100.85295,44.859812 89.712147,34.720922 76.794277,22.964591 61.853307,11.478938 44.791029,7.742131 37.488068,6.1427367 28.300035,5.4820738 22.497523,10.196139 c -5.210107,4.232797 -5.857856,12.44097 -6.256387,19.141932 -0.767383,12.902946 2.292337,26.237792 7.593232,38.026568 4.103661,9.126255 13.243683,19.24844 19.064531,27.387623 4.97103,6.950938 29.404998,32.266188 45.607578,34.347478 -2.85548,11.46631 -4.3953,25.19419 -10.85725,30.46146 -1.57243,-4.16692 -4.25617,-7.65227 -7.88577,-10.55748 6.56634,-5.22054 13.46186,-0.9532 14.01538,-13.62873 -2.75601,-11.50037 -14.09261,-9.55371 -17.99985,-3.75718 1.25984,-7.13625 -5.69431,-16.6777 -12.502398,-17.42468 -8.28913,0.18784 -11.38434,6.06451 -13.12291,13.43421 0.20646,-0.61289 -9.745283,-2.72904 -13.920423,2.87361 -3.737454,6.34235 -1.923263,10.99168 2.69563,16.33284 -3.778718,3.12234 -7.673674,6.18201 -7.365238,11.50802 0.381582,6.58876 4.436359,11.41339 9.331996,11.43931 -1.281841,12.85056 9.266725,19.1434 17.690455,14.91682 3.29593,-1.76164 5.09779,-5.44314 6.34076,-9.67453 3.831528,8.28063 2.9504,21.00844 12.441918,23.94788 14.18983,1.32586 17.89861,0.99333 27.08181,-12.29195 0.39266,5.91404 0.39153,11.63999 0.13025,18.46667 -0.43609,11.39628 0.26143,15.91743 1.8011,28.22411 1.95821,15.65266 4.419513,23.78746 4.744073,33.11346 z"
       id="path950"
       sodipodi:nodetypes="cscsccccccccccccssssssccccccscscsccccccccsscscscccccccccssssssscccccccccscccccsscc" />
    <path
       inkscape:export-ydpi="96"
       inkscape:export-xdpi="96"
       inkscape:export-filename="/home/noumir/kreako/kreako.fr/src/favicon.png"
       sodipodi:nodetypes="cscscccccsccccccssssssccccscscscsccccccccsscscccccccccccssssssscccccccccscccccccc"
       id="path999"
       d="m 100.0973,269.34873 c -5.477463,-5.70277 -10.693293,-13.12636 -19.365603,-13.97828 -7.54702,-0.7414 -29.234408,30.54775 -43.039974,43.83302 6.095356,-16.83453 -3.804844,-30.00236 -16.18037,-19.52529 -9.517993,8.05791 4.244789,15.48105 6.671004,25.02887 -12.412049,-3.63306 -23.387305,-3.6118 -26.647975,5.70884 -3.718058,10.92261 12.054086,15.39328 21.693039,13.67634 -8.189529,3.56546 -15.492252,17.52867 -6.26254,22.32815 5.1957,2.22533 17.958269,-11.16638 17.958269,-11.16638 -0.108304,0.18803 1.18881,16.10716 7.880129,16.90027 12.19884,1.44595 10.54653,-7.07967 13.44576,-16.18343 5.450998,9.76279 16.902248,9.65478 19.174588,-2.62024 0.37515,-9.11317 -2.82447,-10.31468 -11.62341,-11.22384 -2.60199,-0.61615 -5.542448,-4.03161 -6.142468,-5.72521 6.390628,-11.65095 13.266088,-20.16094 16.452238,-23.30477 4.59681,12.40811 14.07608,24.18465 20.50726,27.17158 -10.84436,41.2022 -39.677098,96.68142 -39.867998,119.00265 -0.2104,24.60442 4.958748,41.68266 15.904638,54.90596 17.11997,20.68191 45.122763,45.21565 72.831913,49.00376 15.82732,2.16381 -29.5504,-30.07551 -50.435643,-63.59396 -12.16986,-19.5313 -8.3272,-32.85298 -7.80138,-42.07015 0.95998,-16.8277 9.27631,-37.52867 26.353833,-61.33523 17.06232,-23.78507 22.2975,-12.75956 33.12771,-40.4094 4.16187,9.73038 17.15921,13.52379 32.5578,3.02118 l -12.59597,33.9052 c -2.73957,0.85597 -4.83182,-0.22925 -6.47119,-2.67292 -0.74525,-9.93988 -13.05121,-19.30937 -15.28787,-0.52129 -1.90479,16.00066 17.61736,8.52213 18.39836,18.11535 -11.04524,-0.65434 -31.01512,4.14128 -31.10371,11.94817 -0.10211,8.9776 10.7214,12.40254 21.52308,7.93143 -6.31998,11.215 -1.60384,24.90635 10.20188,23.91337 7.3246,-0.6161 12.1523,-12.52683 7.41513,-21.6167 3.20697,8.51881 16.87237,15.26058 22.51026,11.27765 8.37275,-5.91498 0.74459,-22.21211 -7.3389,-23.06968 3.03967,0.81973 19.03436,0.94121 16.75341,-13.00929 -4.94151,-7.40485 -17.95553,-3.03335 -24.28682,-3.25117 l 4.57985,-20.03885 c 8.33839,-12.85469 18.623,-42.6354 10.49306,-51.97213 -3.99445,-4.09431 -24.84278,-1.43945 -31.24966,-1.73478 6.77306,-35.64443 23.62452,-63.5807 17.09921,-94.55565 -7.36783,-21.64609 -23.32675,-45.24435 -36.2848,-64.45137 0,0 13.6617,4.36977 18.08487,3.27256 5.78336,-1.43461 6.29408,-2.98682 9.68471,-7.88667 2.94488,-4.25557 9.74608,-21.22101 9.74608,-21.22101 5.98182,7.46289 7.89906,12.36139 14.57687,7.4944 7.69743,-5.61013 1.63187,-11.06105 -2.89348,-15.55838 3.41946,-3.51419 6.35587,-6.08343 6.99962,-9.14671 3.47908,-12.364243 -6.95571,-12.918067 -13.15067,-6.148672 2.75558,-4.540597 2.54007,-12.528366 -1.30901,-14.704625 -6.25236,-3.179377 -8.33847,5.731307 -12.7097,10.518541 -2.79172,-3.055098 -9.65509,-13.896076 -13.28643,-8.47396 -2.80456,5.406824 -0.93877,11.106762 0.11681,17.093816 0,0 -8.61216,-5.811253 -12.41458,-1.34794 -7.54731,11.80412 10.14333,15.64551 21.36459,15.63574 -3.76095,3.49101 -16.21069,11.75358 -20.41731,13.31973 -15.1055,-19.59527 -21.84557,-19.38796 -31.85431,-24.20108 0,0 0.519,-17.421308 -2.75449,-26.902969 C 106.82027,67.388724 101.55137,54.859299 91.110497,45.357326 79.003957,34.339507 63.072717,16.247043 47.082239,12.744976 c -6.84421,-1.498919 -15.455006,-2.118059 -20.893027,2.299828 -4.882813,3.966918 -5.489862,11.659468 -5.86336,17.939471 -0.719175,12.09239 7.403457,28.603401 12.371328,39.651625 3.845912,8.552923 12.411749,18.039271 17.866919,25.667168 4.65878,6.514232 26.808368,26.003052 41.993088,27.953562 -1.80366,11.05218 -8.62686,34.89662 -15.22602,39.64233 -1.47364,-3.90515 -10.90961,-15.64433 -14.31126,-18.36703 6.15386,-4.89256 16.38499,-0.52409 16.90377,-12.4033 -2.58291,-10.77795 -14.23409,-1.95948 -17.89586,3.4729 1.18068,-6.68792 -2.80913,-19.30225 -9.189548,-20.00236 -7.76843,0.17592 -6.80663,9.17359 -8.43598,16.08037 0.19352,-0.57442 -10.892635,-8.13486 -14.805507,-2.88419 -3.502684,5.94396 3.775504,12.00445 8.1042,17.01012 -3.541324,2.92619 -13.299976,4.70515 -13.010911,9.69655 0.357663,6.17483 8.823417,5.22083 13.411509,5.24512 -1.201277,12.04328 0.714316,22.22893 8.608879,18.26783 3.08889,-1.65096 7.26635,-11.22983 8.43124,-15.19546 3.590808,7.76049 9.085078,25.81706 17.980368,28.57181 13.29842,1.24255 14.49048,-3.84788 23.09686,-16.29859 0.36781,5.54255 0.38586,26.30896 0.14098,32.70681 0.87777,17.2913 5.824533,35.44149 7.520523,59.27324 z"
       style="display:inline;opacity:0.998;fill:#0284c7;stroke:none;stroke-width:1.39885px;stroke-linecap:butt;stroke-linejoin:miter;stroke-opacity:1" />
    <path
       inkscape:export-ydpi="96"
       inkscape:export-xdpi="96"
       inkscape:export-filename="/home/noumir/kreako/kreako.fr/src/favicon.png"
       style="fill:#f7fafc;stroke:none;stroke-width:1.49262px;stroke-linecap:butt;stroke-linejoin:miter;stroke-opacity:1"
       d="m 82.131387,390.7803 c 0,0 28.903713,-43.06779 38.803843,-70.34972 14.93771,-36.03319 26.6392,-69.22872 26.40585,-96.19746 -0.33357,-25.64271 -26.59467,-86.44659 -26.59467,-86.44659 0,0 32.18317,50.77868 34.03833,77.45401 3.65018,30.69912 -6.61004,58.55902 -24.4457,103.40755 -11.57693,29.01988 -48.207653,72.13221 -48.207653,72.13221 z"
       id="path970"
       sodipodi:nodetypes="ccccccc" />
    <path
       inkscape:export-ydpi="96"
       inkscape:export-xdpi="96"
       inkscape:export-filename="/home/noumir/kreako/kreako.fr/src/favicon.png"
       sodipodi:nodetypes="aaaaa"
       d="m 72.588667,23.439146 c 3.18315,2.187378 8.80909,6.251689 6.67505,9.470831 -2.29288,3.458753 -8.85741,-0.137717 -12.16532,-2.643334 -2.85381,-2.161641 -7.24682,-6.667932 -5.03793,-9.485327 2.23322,-2.848428 7.54514,0.607932 10.5282,2.65783 z"
       style="display:inline;fill:#f7fafc;fill-opacity:1;stroke:none;stroke-width:1.69242"
       id="path972-3" />
    <path
       inkscape:export-ydpi="96"
       inkscape:export-xdpi="96"
       inkscape:export-filename="/home/noumir/kreako/kreako.fr/src/favicon.png"
       id="path972"
       style="fill:#f7fafc;fill-opacity:1;stroke:none;stroke-width:1.69242"
       d="m 41.400999,64.353486 c 2.04497,4.231975 3.16372,12.159856 -1.13765,14.054524 -4.194225,1.847467 -8.68686,-4.397093 -10.860023,-8.432197 -2.282735,-4.238561 -5.273101,-11.968627 -1.117563,-14.399212 4.540686,-2.655864 10.826528,4.040503 13.115236,8.776885 z"
       sodipodi:nodetypes="aaaaa" />
  </g>
</svg>
